M48
;GenerationSoftware,Autodesk,EAGLE,9.2.0*%
;CreationDate,2018-10-07T15:35:28Z*%
FMAT,2
ICI,OFF
METRIC,TZ,000.000
T7C0.381
T6C0.508
T5C0.850
T4C0.900
T3C1.016
T2C1.143
T1C1.270
%
G90
M71
T1
X98839Y83035
X65580Y61678
X75105Y82901
X72597Y49270
X18267Y66993
X33411Y47511
X35062Y66880
X79797Y61764
X34651Y98413
X41606Y27660
X67541Y42147
X59901Y66927
X21976Y61758
X29084Y49611
X42545Y104299
X18268Y98455
X59621Y27656
X35982Y61792
X86596Y103977
X66542Y98421
X9394Y82911
X66425Y67406
X82932Y98404
X41602Y61709
X59630Y61671
X42002Y67006
X32691Y82959
X58737Y104299
X82804Y67551
X41629Y98520
X50639Y3906
X2423Y83018
X67794Y47480
X25794Y82882
X14558Y104068
X43610Y22627
X57578Y22616
X33494Y42144
X59622Y98518
X68662Y82970
X91810Y82870
X50510Y10834
T2
X28524Y89002
X50629Y41789
X46285Y41821
X44304Y47904
X41123Y47911
X32360Y70447
X32334Y95517
X53911Y47917
X37719Y75209
X50717Y47904
X50971Y67374
X57314Y67386
X37598Y90443
X39186Y93243
X68383Y69650
X36087Y78062
X57118Y47942
X15164Y92050
X60329Y47954
X16999Y95237
X30442Y92265
X72330Y76931
X17043Y70307
X34474Y84988
X47504Y47917
X54172Y67367
X54769Y41783
X28658Y76892
X30467Y73628
X57081Y61332
X33021Y61361
X25542Y61363
X29223Y61370
X47993Y28340
X53315Y28315
X60599Y69570
X62218Y72523
X47466Y61316
X44272Y61316
X50648Y61328
X53816Y61328
X63954Y75508
X47784Y67361
X41034Y69533
X39357Y72333
X44621Y67374
X66789Y85027
X65005Y88017
X53344Y22459
X55277Y19933
X47638Y16662
X45676Y19945
X53461Y16783
X47930Y22479
X74930Y61303
X70339Y61341
X69425Y55753
X67634Y58903
X75806Y55791
X77889Y59182
X85909Y73704
X84112Y70504
X34455Y80963
X70529Y73704
X13255Y88691
X68885Y95288
X87947Y88811
X70726Y92189
X87689Y76850
X86125Y91935
X84372Y95148
X72631Y88906
X15075Y73685
X13056Y77089
T3
X30380Y53074
X27840Y53074
T4
X62910Y92160
X61410Y94758
X50609Y31083
T5
X48880Y95049
X52680Y95049
T6
X57150Y101124
X57150Y102394
X57150Y103664
X57150Y104934
X49212Y101124
X47942Y101124
X46672Y101124
X45402Y101124
X54292Y101124
X53022Y101124
X51752Y101124
X50482Y101124
X55562Y101124
X61233Y77775
X61233Y79045
X61233Y80315
X61233Y81585
X61233Y76505
X59963Y77775
X59963Y79045
X59963Y80315
X59963Y81585
X59963Y76505
X44132Y101124
X44132Y102394
X44132Y103664
X44132Y104934
T7
X48260Y18891
X52070Y13652
X48577Y13652
X40005Y84455
X40640Y87947
X44767Y90487
X43815Y93345
X39211Y91757
X46831Y92392
X50324Y89535
X57150Y90170
X64770Y86360
X67310Y81121
X57309Y79216
X56515Y95567
X57150Y97790
X43974Y96361
X40799Y96361
X36195Y82391
X34766Y83026
X43021Y71438
X47466Y70961
X50324Y72073
X55880Y71120
X56515Y75565
X64294Y81280
X49657Y68809
X32385Y67628
X12700Y85566
X17304Y88582
X26352Y86043
X19685Y83026
X21749Y89535
X29210Y96044
X31432Y98584
X20320Y97949
X26352Y79375
X21590Y78581
X20955Y68263
X29845Y67628
X74613Y85725
X79216Y86995
X80963Y76994
X90011Y80804
X80645Y68421
X72390Y69215
X74613Y79375
X78423Y83185
X71755Y98584
X80645Y97790
X36513Y40164
X44767Y29845
X59055Y29845
X55880Y31750
X50959Y28099
X55880Y37941
X52387Y40640
X48577Y40481
X43339Y41751
X39688Y42228
X38576Y37306
X57150Y40323
X58737Y38735
X60801Y41275
X64135Y41116
X63341Y38576
X61754Y39211
X62071Y35401
X48736Y34608
X47307Y32544
X45561Y34290
X52705Y38418
X46831Y58579
X41116Y56674
X42863Y52546
X54769Y59055
X59372Y58102
X32575Y80175
X32925Y79483
X34290Y77248
X34703Y76505
X36379Y73609
X36005Y74352
X37440Y71692
X37808Y71006
X39033Y68986
X39395Y68250
X44228Y65424
X45009Y65430
X47377Y65411
X48171Y65411
X50590Y65424
X51359Y65424
X53765Y65424
X54578Y65430
X56928Y65418
X57702Y65437
X56699Y63176
X57461Y63182
X54210Y63182
X53429Y63182
X51041Y63189
X50248Y63189
X47860Y63195
X47073Y63195
X44660Y63170
X43878Y63163
X25152Y63284
X26010Y65424
X25108Y65430
X25914Y63278
X28823Y63278
X29591Y63290
X32633Y63303
X33401Y63303
X35509Y57760
X35128Y57086
X22841Y57340
X23260Y56686
X40729Y46050
X41504Y46050
X43904Y45999
X44691Y46012
X53518Y45987
X54292Y45987
X56731Y45999
X57506Y45999
X45885Y43650
X46685Y43650
X50203Y43644
X51060Y43637
X52919Y24413
X53689Y24430
X47601Y24410
X48386Y24419
X65634Y58395
X66091Y57569
X79705Y58610
X79223Y57836
X74517Y63182
X75330Y63208
X70764Y63182
X69901Y63182
X87909Y73000
X87490Y72263
X91948Y85611
X91503Y86474
X86233Y95783
X85789Y96558
X70879Y78156
X65907Y74924
X70460Y77400
X69050Y75082
X68618Y74308
X66815Y70968
X66345Y70168
X35700Y91167
X36112Y91815
X11170Y76530
X11500Y75832
X44926Y51911
X53499Y51911
X50959Y52229
X37725Y94482
X65564Y74212
X62205Y68275
X62598Y69025
X60706Y45993
X59944Y45993
X54369Y43637
X55156Y43650
X44280Y18587
X44725Y17711
X56472Y18111
X56955Y18930
X47620Y26538
X48382Y26531
X52923Y26525
X53710Y26512
X26327Y99847
X27064Y99860
X30175Y87662
X30569Y88341
X30201Y78232
X30594Y77578
X31985Y75032
X32379Y74333
X33846Y71844
X34303Y71006
X24765Y72708
X20479Y72390
X16828Y75565
X13811Y81280
X45402Y37306
X48577Y36513
X45720Y32544
X56197Y29369
X44291Y50006
X48382Y57785
X54610Y82550
X41116Y32544
X53022Y75406
X46196Y87154
X54927Y56197
X49530Y56515
X45879Y72866
X24924Y57785
X38894Y76835
X48101Y77470
X49054Y90329
X48736Y78899
X48895Y85249
X85487Y79296
X46037Y39688
X53022Y33496
X48895Y32702
X52070Y49054
X52705Y51276
X54769Y51117
X79693Y89217
X52705Y69691
X58579Y91440
X62706Y85090
X56356Y82074
X29210Y64135
X47149Y51435
X50616Y59677
X50006Y57944
X52229Y72390
X49847Y82074
X45879Y81598
X45720Y77788
X29845Y71279
X7779Y79216
X5874Y77470
X16986Y59372
X17463Y62865
X12859Y70485
X21749Y56356
X53657Y77153
X53657Y79058
X24130Y59690
X33179Y56515
X34290Y60007
X77788Y61595
X67786Y60960
X70326Y57944
X71914Y51276
X73501Y52229
X70961Y52864
X52864Y57467
X46037Y57309
X50641Y55721
X50165Y51276
X56178Y49136
X38576Y54292
X37465Y48577
X37148Y50959
X58579Y49054
X54451Y49847
X65723Y50165
X63341Y49689
X62071Y52387
X60642Y54927
X37325Y93770
M30